# xmcd
#
# Track frame offsets: 
#        150
#        20460
#        44472
#        62377
#        78652
#        97415
#        121245
#        141610
#        157290
#        170650
#        189155
#        201295
#
# Disc length: 2841 seconds
#
# Revision: 4
# Processed by: cddbd v1.5.2PL0 Copyright (c) Steve Scherf et al.
# Submitted via: ExactAudioCopy v0.99pb5
#
DISCID=b10b170c
DTITLE=Kris Kristofferson - The Austin Sessions
DYEAR=1999
DGENRE=Country
TTITLE0=Me And Bobby McGee
TTITLE1=Sunday Morning Coming Down
TTITLE2=For The Good Times
TTITLE3=The Silver Tongued Devil And I
TTITLE4=Help Me Make It Through The Night
TTITLE5=Loving Her Was Easier (Than Anything I'll Ever Do Again)
TTITLE6=To Beat The Devil
TTITLE7=Who's To Bless And Who's To Blame
TTITLE8=Why Me?
TTITLE9=Nobody Wins
TTITLE10=The Pilgrim: Chapter 33
TTITLE11=Please Don't Tell Me How The Story Ends
EXTD=Atlantic-1999
EXTT0=
EXTT1=
EXTT2=
EXTT3=
EXTT4=
EXTT5=
EXTT6=
EXTT7=
EXTT8=
EXTT9=
EXTT10=
EXTT11=
PLAYORDER=
